# xmcd
# Track frame offsets:
# 150
# 9600
# 23587
# 35315
# 51567
# 62560
# 78072
# 88315
# 103002
# 119965
# 133640
# 148132
# 160272
# 173530
# 185427
# 197665
# 212795
# 223332
# 237917
# 250577
#
# Disc length: 3524 seconds
# Revision: 0
# Processed by: cddbd v1.4PL0 Copyright (c) Steve Scherf et al.
# Submitted via: VisiTrax 2.9.5.181 - For more info visit www.synapsa.com
#
DISCID=200dc214
DTITLE=40 MORE FAVOURITE BALLADS - Various Artists CD 2
DYEAR=1988
DGENRE=Easy Listening
TTITLE0=FRANK IFIELD - I'm Confession That I Love Your
TTITLE1=VERA LYNN - The White Cliffs Of Dover
TTITLE2=DANNY WILLIAMS - Moon River
TTITLE3=SHIRLEY BASSEY - Something
TTITLE4=BURL IVES - Pearly Shells
TTITLE5=CRYSTAL GAYLE - When I Dream
TTITLE6=PAT BOONE - Remember Your Mine
TTITLE7=HELEN REDDY - I Don't How To Love Him
TTITLE8=KENNY ROGERS - Love Lifted Me
TTITLE9=GLEN CAMPBELL - Witchita Lineman
TTITLE10=ANNE MURRAY - Could I Have This Dance
TTITLE11=MATT MUNRO - The Impossible Dream
TTITLE12=DORIS DAY - If I Give My Heart To You
TTITLE13=FRANK IFIELD - The Wayward Wind
TTITLE14=BURL IVES - Call Me Mr In Between
TTITLE15=VERA LYNN - As Time Goes By
TTITLE16=PAT BOONE - There's A Goldmine In The Sky
TTITLE17=SHIRLEY BASSEY - Where Do I Begin
TTITLE18=MATT MUNRO - Yesterday
TTITLE19=VINCE HILL - Edelweiss
EXTD=CD 8310442 - 2 EMI
EXTT0=
EXTT1=
EXTT2=
EXTT3=
EXTT4=
EXTT5=
EXTT6=
EXTT7=
EXTT8=
EXTT9=
EXTT10=
EXTT11=
EXTT12=
EXTT13=
EXTT14=
EXTT15=
EXTT16=
EXTT17=
EXTT18=
EXTT19=
PLAYORDER=
